<?xml version="1.0" encoding="UTF-8"?>
<svg xmlns="http://www.w3.org/2000/svg" xmlns:xlink="http://www.w3.org/1999/xlink" viewBox="0 0 48 48" version="1.1" width="48px" height="48px">
<g id="surface1">
<path style=" fill:#424242;" d="M 24 4 C 18.5 4 14 8.5 14 14 L 14 18 L 18 18 L 18 14 C 18 10.699219 20.699219 8 24 8 C 27.300781 8 30 10.699219 30 14 L 30 18 L 34 18 L 34 14 C 34 8.5 29.5 4 24 4 Z "/>
<path style=" fill:#FB8C00;" d="M 36 44 L 12 44 C 9.800781 44 8 42.199219 8 40 L 8 22 C 8 19.800781 9.800781 18 12 18 L 36 18 C 38.199219 18 40 19.800781 40 22 L 40 40 C 40 42.199219 38.199219 44 36 44 Z "/>
<path style=" fill:#C76E00;" d="M 27 31 C 27 32.65625 25.65625 34 24 34 C 22.34375 34 21 32.65625 21 31 C 21 29.34375 22.34375 28 24 28 C 25.65625 28 27 29.34375 27 31 Z "/>
</g>
</svg>
